# xmcd
#
# Track frame offsets: 
#        150
#        25392
#        42827
#        66925
#        83330
#        102407
#        130632
#        148860
#        165780
#
# Disc length: 2493 seconds
#
# Revision: 3
# Processed by: cddbd v1.5.2PL0 Copyright (c) Steve Scherf et al.
# Submitted via: ExactAudioCopyFreeDBPlugin 1.0
#
DISCID=6b09bb09
DTITLE=Bobby Womack - The Poet II
DYEAR=1984
DGENRE=Soul
TTITLE0=Love Has Finally Come At Last
TTITLE1=It Takes A Lot Of Strength To Say Goodbye
TTITLE2=Through The Eyes Of A Child
TTITLE3=Surprise Surprise
TTITLE4=Tryin' To Get Over You
TTITLE5=Tell Me Why
TTITLE6=Who's Foolin' Who
TTITLE7=I Wish I Had Someone To Go Home To
TTITLE8=American Dream
EXTD=
EXTT0=
EXTT1=
EXTT2=
EXTT3=
EXTT4=
EXTT5=
EXTT6=
EXTT7=
EXTT8=
PLAYORDER=
